<mxfile host="app.diagrams.net" agent="Mozilla/5.0 (Windows NT 10.0; Win64; x64) AppleWebKit/537.36 (KHTML, like Gecko) Chrome/135.0.0.0 Safari/537.36" version="26.2.14">
  <diagram name="Página-1" id="7HNtxjhuzRtuSmkYucA9">
    <mxGraphModel dx="1042" dy="527" grid="1" gridSize="10" guides="1" tooltips="1" connect="1" arrows="1" fold="1" page="1" pageScale="1" pageWidth="827" pageHeight="1169" math="0" shadow="0">
      <root>
        <mxCell id="0" />
        <mxCell id="1" parent="0" />
        <mxCell id="Qc1F6-NoZ0B22fIiZsgn-1" value="DEPARTAMENTO( &lt;u&gt;id_depto&lt;/u&gt;, provincia, nombre_depto)" style="text;html=1;align=center;verticalAlign=middle;resizable=0;points=[];autosize=1;strokeColor=none;fillColor=none;" vertex="1" parent="1">
          <mxGeometry x="40" y="50" width="320" height="30" as="geometry" />
        </mxCell>
        <mxCell id="Qc1F6-NoZ0B22fIiZsgn-2" value="POBLACIÓN (&lt;u&gt;id_depto&lt;/u&gt;, pob_jardín, pob_primaria, pob_secundaria, pob_total)&amp;nbsp;" style="text;html=1;align=center;verticalAlign=middle;resizable=0;points=[];autosize=1;strokeColor=none;fillColor=none;" vertex="1" parent="1">
          <mxGeometry x="40" y="130" width="440" height="30" as="geometry" />
        </mxCell>
        <mxCell id="Qc1F6-NoZ0B22fIiZsgn-4" value="" style="endArrow=classic;html=1;rounded=0;entryX=0.441;entryY=1.173;entryDx=0;entryDy=0;entryPerimeter=0;exitX=0.25;exitY=0.213;exitDx=0;exitDy=0;exitPerimeter=0;" edge="1" parent="1" source="Qc1F6-NoZ0B22fIiZsgn-2" target="Qc1F6-NoZ0B22fIiZsgn-1">
          <mxGeometry relative="1" as="geometry">
            <mxPoint x="140" y="120" as="sourcePoint" />
            <mxPoint x="240" y="120" as="targetPoint" />
          </mxGeometry>
        </mxCell>
        <mxCell id="Qc1F6-NoZ0B22fIiZsgn-6" value="FK" style="edgeLabel;html=1;align=center;verticalAlign=middle;resizable=0;points=[];" vertex="1" connectable="0" parent="Qc1F6-NoZ0B22fIiZsgn-4">
          <mxGeometry x="0.048" y="-2" relative="1" as="geometry">
            <mxPoint as="offset" />
          </mxGeometry>
        </mxCell>
        <mxCell id="Qc1F6-NoZ0B22fIiZsgn-7" value="BP( &lt;u&gt;nro_conabip&lt;/u&gt;, fecha_fundación, mail, id_depto)" style="text;html=1;align=center;verticalAlign=middle;resizable=0;points=[];autosize=1;strokeColor=none;fillColor=none;labelBackgroundColor=default;" vertex="1" parent="1">
          <mxGeometry x="115" y="210" width="290" height="30" as="geometry" />
        </mxCell>
      </root>
    </mxGraphModel>
  </diagram>
</mxfile>
